<svg width="226" height="291" viewBox="0 0 226 291" fill="none" xmlns="http://www.w3.org/2000/svg">
<g clip-path="url(#clip0_60_17)">
<path d="M161.72 203.28C168.96 210.52 178.96 215 190 215C178.96 215 168.96 219.48 161.72 226.72C154.48 233.96 150 243.96 150 255C150 232.91 132.09 215 110 215C121.04 215 131.04 210.52 138.28 203.28C145.52 196.04 150 186.04 150 175C150 186.04 154.48 196.04 161.72 203.28Z" fill="#FF641A"/>
<path d="M140 25C145.52 25 150 29.48 150 35C150 40.52 145.52 45 140 45C134.48 45 130 40.52 130 35C130 29.48 134.48 25 140 25Z" fill="black"/>
<path d="M10 175C15.52 175 20 179.48 20 185C20 190.52 15.52 195 10 195C4.48 195 0 190.52 0 185C0 179.48 4.48 175 10 175Z" fill="black"/>
<path d="M-180 -195C-174.48 -195 -170 -190.52 -170 -185C-170 -179.48 -174.48 -175 -180 -175C-185.52 -175 -190 -179.48 -190 -185C-190 -190.52 -185.52 -195 -180 -195ZM-250 -105C-244.48 -105 -240 -100.52 -240 -95C-240 -89.48 -244.48 -85 -250 -85C-255.52 -85 -260 -89.48 -260 -95C-260 -100.52 -255.52 -105 -250 -105ZM150 260C148.674 260 147.402 259.473 146.464 258.536C145.527 257.598 145 256.326 145 255C145 235.701 129.299 220 110 220C107.238 220 105 217.762 105 215C105 212.238 107.238 210 110 210C119.343 210 128.131 206.357 134.745 199.744C141.357 193.131 145 184.343 145 175C145 172.238 147.238 170 150 170C152.762 170 155 172.238 155 175C155 184.343 158.643 193.131 165.256 199.745C171.869 206.357 180.657 210 190 210C192.762 210 195 212.238 195 215C195 217.762 192.762 220 190 220C180.656 220 171.868 223.642 165.255 230.255C158.643 236.869 155 245.657 155 255C155 256.326 154.473 257.598 153.536 258.536C152.598 259.473 151.326 260 150 260ZM130.63 215.014C138.924 219.315 145.685 226.076 149.986 234.37C152.126 230.242 154.891 226.469 158.183 223.184C161.461 219.899 165.225 217.138 169.344 214.999C165.225 212.861 161.461 210.1 158.184 206.815C154.899 203.537 152.138 199.772 149.999 195.654C147.861 199.772 145.1 203.537 141.815 206.814C138.531 210.107 134.759 212.873 130.63 215.014ZM-80 110H-100C-101.326 110 -102.598 109.473 -103.536 108.536C-104.473 107.598 -105 106.326 -105 105C-105 103.674 -104.473 102.402 -103.536 101.464C-102.598 100.527 -101.326 100 -100 100H-85V50H-255V100H-240C-238.674 100 -237.402 100.527 -236.464 101.464C-235.527 102.402 -235 103.674 -235 105C-235 106.326 -235.527 107.598 -236.464 108.536C-237.402 109.473 -238.674 110 -240 110H-260C-261.326 110 -262.598 109.473 -263.536 108.536C-264.473 107.598 -265 106.326 -265 105V45C-265 43.6739 -264.473 42.4022 -263.536 41.4645C-262.598 40.5268 -261.326 40 -260 40H-80C-78.6739 40 -77.4021 40.5268 -76.4645 41.4645C-75.5268 42.4022 -75 43.6739 -75 45V105C-75 106.326 -75.5268 107.598 -76.4645 108.536C-77.4021 109.473 -78.6739 110 -80 110ZM40 -10H-20C-21.3261 -10 -22.5978 -10.5268 -23.5355 -11.4645C-24.4732 -12.4021 -25 -13.6739 -25 -15V-195C-25 -196.326 -24.4732 -197.598 -23.5355 -198.536C-22.5978 -199.473 -21.3261 -200 -20 -200H40C41.3261 -200 42.5978 -199.473 43.5355 -198.536C44.4732 -197.598 45 -196.326 45 -195V-175C45 -172.238 42.762 -170 40 -170C37.238 -170 35 -172.238 35 -175V-190H-15V-20H35V-35C35 -37.762 37.238 -40 40 -40C42.762 -40 45 -37.762 45 -35V-15C45 -13.6739 44.4732 -12.4021 43.5355 -11.4645C42.5978 -10.5268 41.3261 -10 40 -10Z" fill="black"/>
<path d="M-100 50C-101.326 50 -102.598 49.4732 -103.536 48.5355C-104.473 47.5978 -105 46.3261 -105 45C-105 -1.869 -66.869 -40 -20 -40C-18.6739 -40 -17.4022 -39.4732 -16.4645 -38.5355C-15.5268 -37.5979 -15 -36.3261 -15 -35C-15 -33.6739 -15.5268 -32.4021 -16.4645 -31.4645C-17.4022 -30.5268 -18.6739 -30 -20 -30C-61.355 -30 -95 3.645 -95 45C-95 46.3261 -95.5268 47.5978 -96.4645 48.5355C-97.4021 49.4732 -98.6739 50 -100 50ZM-240 50C-241.326 50 -242.598 49.4732 -243.536 48.5355C-244.473 47.5978 -245 46.3261 -245 45C-245 -79.348 -144.366 -180 -20 -180C-18.6739 -180 -17.4022 -179.473 -16.4645 -178.536C-15.5268 -177.598 -15 -176.326 -15 -175C-15 -173.674 -15.5268 -172.402 -16.4645 -171.464C-17.4022 -170.527 -18.6739 -170 -20 -170C-138.551 -170 -235 -73.552 -235 45C-235 46.3261 -235.527 47.5978 -236.464 48.5355C-237.402 49.4732 -238.674 50 -240 50ZM200 -30H40C38.6739 -30 37.4022 -30.5268 36.4645 -31.4645C35.5268 -32.4021 35 -33.6739 35 -35V-175C35 -176.326 35.5268 -177.598 36.4645 -178.536C37.4022 -179.473 38.6739 -180 40 -180H200C201.326 -180 202.598 -179.473 203.536 -178.536C204.473 -177.598 205 -176.326 205 -175V-35C205 -33.6739 204.473 -32.4021 203.536 -31.4645C202.598 -30.5268 201.326 -30 200 -30ZM45 -40H195V-170H45V-40ZM-100 270H-240C-241.326 270 -242.598 269.473 -243.536 268.536C-244.473 267.598 -245 266.326 -245 265V105C-245 103.674 -244.473 102.402 -243.536 101.464C-242.598 100.527 -241.326 100 -240 100H-100C-98.6739 100 -97.4021 100.527 -96.4645 101.464C-95.5268 102.402 -95 103.674 -95 105V265C-95 266.326 -95.5268 267.598 -96.4645 268.536C-97.4021 269.473 -98.6739 270 -100 270ZM-235 260H-105V110H-235V260Z" fill="black"/>
<path d="M200 -80H120C117.238 -80 115 -82.238 115 -85C115 -87.762 117.238 -90 120 -90H200C202.762 -90 205 -87.762 205 -85C205 -82.238 202.762 -80 200 -80ZM-150 270C-151.326 270 -152.598 269.473 -153.536 268.536C-154.473 267.598 -155 266.326 -155 265V175C-155 173.674 -154.473 172.402 -153.536 171.464C-152.598 170.527 -151.326 170 -150 170C-148.674 170 -147.402 170.527 -146.464 171.464C-145.527 172.402 -145 173.674 -145 175V265C-145 266.326 -145.527 267.598 -146.464 268.536C-147.402 269.473 -148.674 270 -150 270Z" fill="black"/>
</g>
<defs>
<clipPath id="clip0_60_17">
<rect width="226" height="291" fill="white"/>
</clipPath>
</defs>
</svg>
