<svg width="94" height="94" viewBox="0 0 94 94" fill="none" xmlns="http://www.w3.org/2000/svg">
<path d="M23.915 2.94221C23.4689 2.94075 23.0269 3.02744 22.6144 3.19731C22.2019 3.36718 21.8271 3.61688 21.5114 3.93206C21.1957 4.24724 20.9454 4.62169 20.7748 5.0339C20.6043 5.44611 20.5168 5.88795 20.5176 6.33405V32.2031C20.504 38.3067 22.6039 44.2268 26.4605 48.9577C30.317 53.6886 35.6924 56.9385 41.6735 58.1553V77.7736C41.6735 86.9943 28.1895 81.4375 29.0333 91.0634H64.9723C66.0659 81.5596 52.6373 85.8396 52.3265 79.1503V58.1553C58.3066 56.9387 63.6813 53.6896 67.5378 48.9598C71.3942 44.2301 73.4947 38.3113 73.4824 32.2086V6.3285C73.4839 5.88194 73.397 5.43949 73.2268 5.02664C73.0566 4.61379 72.8064 4.23868 72.4906 3.92291C72.1749 3.60714 71.7998 3.35695 71.3869 3.18673C70.9741 3.01652 70.5316 2.92964 70.0851 2.93111L23.915 2.94221Z" fill="#D1DCFF"/>
<path d="M41.9122 2.9422L32.5972 25.0363H49.7229L47.0028 40.7631L60.6367 17.148H47.0028L53.4534 2.9422H41.9122Z" fill="#55A1FF"/>
<path d="M39.5596 86.3895C37.1552 86.391 35.7702 89.1214 37.189 91.0631H64.9691C65.2497 88.5251 64.4903 87.1768 63.7501 86.3895H39.5596Z" fill="#BFD2FF"/>
<path d="M34.651 20.1749L32.5991 25.0439H42.6484C43.0191 24.619 43.2598 24.0964 43.3416 23.5385C43.4233 22.9805 43.3428 22.4108 43.1096 21.8974C42.8763 21.384 42.5002 20.9486 42.0262 20.6432C41.5522 20.3377 41.0003 20.1752 40.4364 20.1749H34.651Z" fill="#488BFF"/>
<path d="M23.9129 1.46875C22.6243 1.47455 21.3901 1.98912 20.479 2.90046C19.568 3.8118 19.0537 5.04613 19.0483 6.33475V32.207C19.0483 45.3142 28.043 56.2168 40.2073 59.2498V79.2396C40.2073 84.0072 26.7388 80.6349 27.6112 91.4436C27.6861 92.0692 28.3662 92.5304 29.0315 92.5304H64.9691C65.2925 92.5309 65.607 92.4246 65.8638 92.2281C66.1206 92.0316 66.3054 91.7558 66.3894 91.4436C67.5013 80.7715 53.7933 84.3039 53.7933 79.1486V63.8823C53.8212 61.8965 50.8264 61.8965 50.8558 63.8823V79.1515C51.1261 87.4647 62.7675 82.8146 63.6238 89.5958H30.3769C30.3769 83.6665 43.1448 86.4086 43.1448 79.1515V58.157C43.1449 57.8184 43.028 57.4902 42.8139 57.2279C42.5997 56.9656 42.3016 56.7854 41.9698 56.7176C36.3184 55.573 31.2384 52.505 27.5947 48.0359C23.951 43.5669 21.9689 37.9731 21.9859 32.207V6.33328C21.9859 5.24053 22.8201 4.40627 23.9129 4.40627H51.1716L45.6637 16.547C45.562 16.7707 45.518 17.0164 45.5358 17.2615C45.5536 17.5066 45.6326 17.7433 45.7656 17.95C45.8986 18.1566 46.0813 18.3266 46.2971 18.4443C46.5128 18.5621 46.7546 18.6238 47.0003 18.6239H58.0939L49.8541 32.8899L51.1687 25.2965C51.2055 25.0855 51.1958 24.8691 51.1401 24.6623C51.0845 24.4555 50.9843 24.2634 50.8467 24.0994C50.709 23.9354 50.5371 23.8035 50.3431 23.7129C50.149 23.6224 49.9375 23.5753 49.7234 23.5751H34.8155L40.8521 9.23702C41.6188 7.43045 38.9045 6.28482 38.1452 8.0958L31.2449 24.4754C31.1512 24.6987 31.1142 24.9416 31.1371 25.1826C31.1599 25.4237 31.242 25.6553 31.3761 25.8569C31.5101 26.0585 31.6919 26.2239 31.9053 26.3383C32.1187 26.4527 32.357 26.5126 32.5991 26.5126H47.977L45.5521 40.5172C45.2687 42.1358 47.4512 42.926 48.2708 41.5042L61.9053 17.8895C62.0341 17.6663 62.102 17.4132 62.1021 17.1555C62.1021 16.8978 62.0344 16.6446 61.9057 16.4214C61.777 16.1981 61.5918 16.0127 61.3687 15.8837C61.1456 15.7547 60.8925 15.6866 60.6348 15.6864H49.2784L54.3985 4.40627H70.0892C71.182 4.40627 72.0163 5.24053 72.0163 6.33475V32.207C72.0163 44.3624 63.4637 54.3999 52.0338 56.7162C50.1082 57.1025 50.6943 59.9915 52.6183 59.5964C58.9305 58.3104 64.6033 54.8803 68.6744 49.888C72.7455 44.8957 74.9641 38.6488 74.9538 32.207V6.33328C74.948 5.04492 74.4336 3.81097 73.5226 2.89994C72.6116 1.98892 71.3776 1.47455 70.0892 1.46875H23.9129Z" fill="#313131"/>
</svg>
