<svg width="89" height="89" viewBox="0 0 89 89" fill="none" xmlns="http://www.w3.org/2000/svg">
<g clip-path="url(#clip0_61_77)">
<path d="M10.0941 74.3595C9.7843 74.2035 9.43666 74.1385 9.09144 74.172C8.74622 74.2054 8.41755 74.336 8.1435 74.5486L2.37704 78.9578C0.864042 80.0332 0 81.6649 0 83.4375C0 86.5043 2.49571 89 5.5625 89C8.62929 89 11.125 86.5043 11.125 83.4375V76.0208C11.125 75.6754 11.0285 75.3368 10.8463 75.0432C10.6642 74.7497 10.4036 74.5129 10.0941 74.3595Z" fill="black"/>
<path d="M7.41665 83.4375C7.41665 83.9293 7.2213 84.4009 6.87357 84.7486C6.52585 85.0963 6.05424 85.2917 5.56248 85.2917C5.07072 85.2917 4.59911 85.0963 4.25139 84.7486C3.90366 84.4009 3.70831 83.9293 3.70831 83.4375C3.70831 82.6699 4.22748 82.1878 4.54269 81.969L4.60202 81.9245L7.41665 79.7737V83.4375Z" fill="#BBDEFB"/>
<path d="M47.1774 74.3595C46.8676 74.2035 46.52 74.1385 46.1748 74.172C45.8295 74.2054 45.5009 74.336 45.2268 74.5486L39.4604 78.9578C37.9474 80.0332 37.0833 81.6649 37.0833 83.4375C37.0833 86.5043 39.579 89 42.6458 89C45.7126 89 48.2083 86.5043 48.2083 83.4375V76.0208C48.2083 75.6754 48.1118 75.3368 47.9296 75.0432C47.7475 74.7497 47.4869 74.5129 47.1774 74.3595Z" fill="black"/>
<path d="M44.5 83.4375C44.5 83.9293 44.3047 84.4009 43.9569 84.7486C43.6092 85.0963 43.1376 85.2917 42.6459 85.2917C42.1541 85.2917 41.6825 85.0963 41.3348 84.7486C40.987 84.4009 40.7917 83.9293 40.7917 83.4375C40.7917 82.6699 41.3109 82.1878 41.6261 81.969L41.6854 81.9245L44.5 79.7737V83.4375Z" fill="#BBDEFB"/>
<path d="M11.125 37.0833C11.125 30.9497 16.1164 25.9583 22.25 25.9583C22.7418 25.9583 23.2134 25.763 23.5611 25.4152C23.9088 25.0675 24.1042 24.5959 24.1042 24.1041C24.1042 23.6124 23.9088 23.1408 23.5611 22.7931C23.2134 22.4453 22.7418 22.25 22.25 22.25C21.7123 22.25 21.208 22.3538 20.6851 22.4094C22.3167 11.7554 31.5653 3.70831 42.6458 3.70831C51.2603 3.70831 59.07 8.8184 62.7079 16.5429C61.8051 16.9543 60.937 17.438 60.1121 17.9891C59.8986 18.1199 59.7139 18.2926 59.569 18.4968C59.424 18.7009 59.322 18.9323 59.2689 19.177C59.2159 19.4217 59.2129 19.6746 59.2602 19.9204C59.3075 20.1663 59.4041 20.4 59.5442 20.6075C59.6843 20.815 59.865 20.992 60.0753 21.1277C60.2856 21.2635 60.5213 21.3553 60.7681 21.3976C61.0148 21.4398 61.2676 21.4317 61.5111 21.3736C61.7547 21.3155 61.9839 21.2087 62.185 21.0596C64.6293 19.4126 67.511 18.5356 70.4583 18.5416C78.6389 18.5416 85.2917 25.1944 85.2917 33.375C85.2917 41.5556 78.6389 48.2083 70.4583 48.2083H66.5349C65.4598 47.1656 64.2128 46.3163 62.8488 45.6978C61.588 34.5357 52.1392 25.9583 40.7917 25.9583C36.7652 25.969 32.8174 27.0735 29.37 29.1538C25.9226 31.2341 23.1053 34.2121 21.2191 37.7694C19.7475 37.3325 18.2225 37.1016 16.6875 37.0833C14.7592 37.0833 12.9347 37.4764 11.2066 38.0846C11.1695 37.7434 11.125 37.4022 11.125 37.0833Z" fill="#64B5F6"/>
<path d="M57.4791 66.75H16.6875C9.5304 66.75 3.70831 60.9279 3.70831 53.7709C3.70831 46.6138 9.5304 40.7917 16.6875 40.7917C19.669 40.7917 22.4725 41.7744 24.7976 43.636C24.9865 43.7973 25.2058 43.919 25.4426 43.9938C25.6795 44.0687 25.9289 44.0952 26.1762 44.0719C26.4234 44.0485 26.6635 43.9757 26.882 43.8577C27.1006 43.7398 27.2933 43.5792 27.4486 43.3854C27.6039 43.1915 27.7187 42.9685 27.7861 42.7295C27.8536 42.4904 27.8723 42.2403 27.8412 41.9939C27.8101 41.7474 27.7299 41.5098 27.6052 41.295C27.4805 41.0802 27.3139 40.8927 27.1153 40.7435C26.3535 40.1363 25.5394 39.5977 24.6826 39.1341C26.2875 36.2697 28.625 33.8834 31.4556 32.2198C34.2863 30.5562 37.5083 29.6751 40.7916 29.6667C49.7361 29.6667 57.2121 36.0821 58.8883 44.6409C58.4211 44.5927 57.9612 44.5 57.4791 44.5C56.9874 44.5 56.5158 44.6954 56.168 45.0431C55.8203 45.3908 55.625 45.8624 55.625 46.3542C55.625 46.8459 55.8203 47.3176 56.168 47.6653C56.5158 48.013 56.9874 48.2084 57.4791 48.2084C62.5892 48.2084 66.75 52.3691 66.75 57.4792C66.75 62.5893 62.5892 66.75 57.4791 66.75Z" fill="#64B5F6"/>
<path opacity="0.1" d="M60.4384 48.7386C61.8145 49.6352 62.9437 50.8628 63.7224 52.3088C64.5012 53.7549 64.9046 55.3733 64.8958 57.0156C64.8958 62.3816 60.7351 66.75 55.625 66.75H57.4792C62.5893 66.75 66.75 62.5893 66.75 57.4792C66.7433 55.5454 66.1309 53.6624 64.9988 52.0946C63.8667 50.5269 62.2719 49.3533 60.4384 48.7386Z" fill="black"/>
<path opacity="0.2" d="M5.56248 53.7709C5.56248 46.903 10.9433 41.3183 17.7036 40.877C17.3661 40.851 17.0361 40.7917 16.6875 40.7917C9.5304 40.7917 3.70831 46.6138 3.70831 53.7709C3.70831 60.9279 9.5304 66.75 16.6875 66.75H18.5416C11.3846 66.75 5.56248 60.9279 5.56248 53.7709Z" fill="white"/>
<path opacity="0.1" d="M70.4583 18.5417C70.0171 18.5417 69.5869 18.601 69.153 18.6381C76.8812 19.135 83.0296 25.5208 83.0296 33.375C83.0296 41.2441 76.8515 47.641 69.0974 48.1156L69.153 48.2084H70.4583C78.6389 48.2084 85.2917 41.5556 85.2917 33.375C85.2917 25.1944 78.6389 18.5417 70.4583 18.5417Z" fill="black"/>
<path opacity="0.2" d="M42.6458 31.5209C47.3221 31.5209 51.5718 33.3009 54.8277 36.2045C53.1065 34.157 50.9583 32.5109 48.5336 31.3815C46.1089 30.2521 43.4665 29.6668 40.7917 29.6667C37.5084 29.6751 34.2863 30.5562 31.4557 32.2198C28.625 33.8834 26.2875 36.2697 24.6827 39.1341C25.4318 39.542 26.1401 40.0241 26.8224 40.5506C28.4561 37.8077 30.7721 35.5344 33.545 33.9521C36.3179 32.3697 39.4532 31.5321 42.6458 31.5209Z" fill="white"/>
<path d="M70.4583 14.8333C69.0195 14.8333 67.614 15.0447 66.2345 15.3673C62.0812 6.13358 52.8438 0 42.6458 0C29.2217 0 18.1263 10.1497 16.8692 23.2958C14.0897 24.3766 11.7008 26.2706 10.0144 28.7303C8.32811 31.19 7.42277 34.1011 7.41667 37.0833C7.41667 37.9363 7.54275 38.8225 7.72817 39.7385C5.36424 41.2392 3.41685 43.3117 2.06605 45.7644C0.715261 48.2171 0.00467528 50.9708 0 53.7708C0 62.9712 7.48712 70.4583 16.6875 70.4583H57.4792C64.6362 70.4583 70.4583 64.6363 70.4583 57.4792C70.448 55.5507 70.0031 53.6495 69.1567 51.9167H70.4583C80.6822 51.9167 89 43.5989 89 33.375C89 23.1511 80.6822 14.8333 70.4583 14.8333Z" fill="black"/>
<path d="M57.4791 66.75H16.6875C9.5304 66.75 3.70831 60.9279 3.70831 53.7709C3.70831 46.6138 9.5304 40.7917 16.6875 40.7917C19.669 40.7917 22.4725 41.7744 24.7976 43.636C24.9865 43.7973 25.2058 43.919 25.4426 43.9938C25.6795 44.0687 25.9289 44.0952 26.1762 44.0719C26.4234 44.0485 26.6635 43.9757 26.882 43.8577C27.1006 43.7398 27.2933 43.5792 27.4486 43.3854C27.6039 43.1915 27.7187 42.9685 27.7861 42.7295C27.8536 42.4904 27.8723 42.2403 27.8412 41.9939C27.8101 41.7474 27.7299 41.5098 27.6052 41.295C27.4805 41.0802 27.3139 40.8927 27.1153 40.7435C26.3535 40.1363 25.5394 39.5977 24.6826 39.1341C26.2875 36.2697 28.625 33.8834 31.4556 32.2198C34.2863 30.5562 37.5083 29.6751 40.7916 29.6667C49.7361 29.6667 57.2121 36.0821 58.8883 44.6409C58.4211 44.5927 57.9612 44.5 57.4791 44.5C56.9874 44.5 56.5158 44.6954 56.168 45.0431C55.8203 45.3908 55.625 45.8624 55.625 46.3542C55.625 46.8459 55.8203 47.3176 56.168 47.6653C56.5158 48.013 56.9874 48.2084 57.4791 48.2084C62.5892 48.2084 66.75 52.3691 66.75 57.4792C66.75 62.5893 62.5892 66.75 57.4791 66.75Z" fill="#64B5F6"/>
<path opacity="0.2" d="M22.9991 22.4131C24.1772 17.6018 26.9369 13.3255 30.8357 10.2699C34.7345 7.21435 39.5465 5.5566 44.5 5.56248C49.9894 5.58627 55.2729 7.65549 59.3185 11.366C57.247 8.97352 54.6873 7.05225 51.8115 5.73139C48.9357 4.41054 45.8104 3.72072 42.6458 3.70831C31.5653 3.70831 22.313 11.7591 20.6851 22.4094C21.2042 22.3538 21.7123 22.25 22.25 22.25C22.517 22.25 22.7691 22.3093 22.9991 22.4131Z" fill="white"/>
<path d="M11.125 37.0833C11.125 30.9497 16.1164 25.9583 22.25 25.9583C22.7418 25.9583 23.2134 25.763 23.5611 25.4152C23.9088 25.0675 24.1042 24.5959 24.1042 24.1041C24.1042 23.6124 23.9088 23.1408 23.5611 22.7931C23.2134 22.4453 22.7418 22.25 22.25 22.25C21.7123 22.25 21.208 22.3538 20.6851 22.4094C22.3167 11.7554 31.5653 3.70831 42.6458 3.70831C51.2603 3.70831 59.07 8.8184 62.7079 16.5429C61.8051 16.9543 60.937 17.438 60.1121 17.9891C59.8986 18.1199 59.7139 18.2926 59.569 18.4968C59.424 18.7009 59.322 18.9323 59.2689 19.177C59.2159 19.4217 59.2129 19.6746 59.2602 19.9204C59.3075 20.1663 59.4041 20.4 59.5442 20.6075C59.6843 20.815 59.865 20.992 60.0753 21.1277C60.2856 21.2635 60.5213 21.3553 60.7681 21.3976C61.0148 21.4398 61.2676 21.4317 61.5111 21.3736C61.7547 21.3155 61.9839 21.2087 62.185 21.0596C64.6293 19.4126 67.511 18.5356 70.4583 18.5416C78.6389 18.5416 85.2917 25.1944 85.2917 33.375C85.2917 41.5556 78.6389 48.2083 70.4583 48.2083H66.5349C65.4598 47.1656 64.2128 46.3163 62.8488 45.6978C61.588 34.5357 52.1392 25.9583 40.7917 25.9583C36.7652 25.969 32.8174 27.0735 29.37 29.1538C25.9226 31.2341 23.1053 34.2121 21.2191 37.7694C19.7475 37.3325 18.2225 37.1016 16.6875 37.0833C14.7592 37.0833 12.9347 37.4764 11.2066 38.0846C11.1695 37.7434 11.125 37.4022 11.125 37.0833Z" fill="#64B5F6"/>
<path d="M80.5524 70.6512C80.2425 70.4956 79.895 70.4309 79.5499 70.4643C79.2047 70.4978 78.8761 70.6281 78.6018 70.8403L72.8391 75.2532C71.3224 76.3249 70.4583 77.9529 70.4583 79.7292C70.4583 82.796 72.9541 85.2917 76.0208 85.2917C79.0876 85.2917 81.5833 82.796 81.5833 79.7292V72.3125C81.5833 71.9671 81.4868 71.6285 81.3047 71.3349C81.1225 71.0414 80.862 70.8046 80.5524 70.6512Z" fill="black"/>
<path opacity="0.1" d="M62.8118 49.9216C62.9564 50.5668 63.0417 51.2306 63.0417 51.9167C63.0417 57.0267 58.8809 61.1875 53.7708 61.1875H12.9792C9.83131 61.176 6.79685 60.011 4.45001 57.913C6.18551 63.0305 10.9841 66.75 16.6875 66.75H57.4792C62.5893 66.75 66.75 62.5892 66.75 57.4792C66.75 54.3567 65.1851 51.6014 62.8118 49.9216Z" fill="black"/>
<path d="M77.875 79.7291C77.875 80.2209 77.6796 80.6925 77.3319 81.0402C76.9842 81.388 76.5126 81.5833 76.0208 81.5833C75.5291 81.5833 75.0575 81.388 74.7097 81.0402C74.362 80.6925 74.1667 80.2209 74.1667 79.7291C74.1667 78.9615 74.6858 78.4831 75.001 78.2644L75.0604 78.2161L77.875 76.0653V79.7291Z" fill="#BBDEFB"/>
<path d="M16.6875 89C16.4129 89.0012 16.1414 88.9411 15.8929 88.8241C15.6445 88.7071 15.4252 88.5362 15.2511 88.3238C15.077 88.1113 14.9526 87.8627 14.8867 87.5961C14.8208 87.3295 14.8153 87.0515 14.8704 86.7824L20.4329 58.9699C20.4884 58.6901 20.6078 58.4267 20.7817 58.2005C20.9556 57.9743 21.1794 57.7913 21.4356 57.6657C21.6918 57.5401 21.9735 57.4753 22.2589 57.4764C22.5442 57.4775 22.8255 57.5445 23.0807 57.672L28.1166 60.1937L29.6741 46.1502C29.7054 45.8753 29.7975 45.6109 29.9439 45.3761C30.0902 45.1413 30.287 44.9421 30.52 44.7929C30.753 44.6437 31.0163 44.5483 31.2908 44.5137C31.5653 44.4791 31.844 44.5061 32.1068 44.5927L43.2318 48.3011C44.1885 48.62 44.7151 49.6435 44.4184 50.6077L37.0018 74.7118C36.9241 74.97 36.7908 75.2081 36.6111 75.4091C36.4314 75.6102 36.2098 75.7694 35.9619 75.8755C35.7141 75.9815 35.4459 76.0319 35.1764 76.0231C34.9069 76.0143 34.6426 75.9464 34.4022 75.8243L28.4467 72.8502L18.2302 88.1731C18.061 88.4273 17.8317 88.6358 17.5626 88.78C17.2935 88.9243 16.9929 88.9999 16.6875 89Z" fill="black"/>
<path d="M57.4792 81.5833C54.4124 81.5833 51.9167 79.0876 51.9167 76.0208C51.9167 74.2482 52.7807 72.6203 54.29 71.5411L60.0602 67.1319C60.334 66.9186 60.6624 66.7868 61.0078 66.7516C61.3531 66.7165 61.7014 66.7793 62.0126 66.933C62.3239 67.0867 62.5855 67.325 62.7675 67.6206C62.9495 67.9161 63.0445 68.257 63.0417 68.6041V76.0208C63.0417 79.0876 60.5459 81.5833 57.4792 81.5833Z" fill="black"/>
<path d="M59.3333 72.357L56.5187 74.5078C56.2544 74.6644 56.0339 74.8852 55.8777 75.1496C55.7215 75.4141 55.6346 75.7138 55.625 76.0208C55.625 76.5126 55.8203 76.9842 56.1681 77.3319C56.5158 77.6797 56.9874 77.875 57.4792 77.875C57.9709 77.875 58.4425 77.6797 58.7903 77.3319C59.138 76.9842 59.3333 76.5126 59.3333 76.0208V72.357Z" fill="#BBDEFB"/>
<path opacity="0.1" d="M75.2347 19.402C76.8923 21.7939 77.875 24.6864 77.875 27.8125C77.875 35.9931 71.2223 42.6458 63.0417 42.6458H62.2147C62.4743 43.6471 62.7302 44.6483 62.8451 45.6978C64.2172 46.3245 65.4669 47.1663 66.5349 48.2083H70.4583C78.6389 48.2083 85.2917 41.5556 85.2917 33.375C85.2917 26.878 81.0642 21.4008 75.2347 19.402Z" fill="black"/>
<path d="M23.5924 62.0775L20.3439 78.32L26.2699 69.4311C26.5205 69.0547 26.9001 68.7828 27.3372 68.6667C27.7743 68.5506 28.2388 68.5982 28.6432 68.8007L34.1019 71.53L40.343 51.2454L33.1117 48.835L31.5134 63.2456C31.4806 63.5427 31.3763 63.8274 31.2097 64.0756C31.043 64.3237 30.8188 64.5278 30.5562 64.6706C30.2936 64.8134 30.0003 64.8906 29.7015 64.8956C29.4026 64.9005 29.107 64.8332 28.8397 64.6993L23.5924 62.0775Z" fill="#FFCA28"/>
<path d="M47.1774 74.3595C46.8676 74.2035 46.52 74.1385 46.1748 74.172C45.8296 74.2055 45.5009 74.336 45.2268 74.5486L39.4604 78.9578C37.9474 80.0332 37.0833 81.6649 37.0833 83.4375C37.0833 86.5043 39.579 89 42.6458 89C45.7126 89 48.2083 86.5043 48.2083 83.4375V76.0208C48.2083 75.6754 48.1118 75.3368 47.9297 75.0432C47.7475 74.7497 47.487 74.5129 47.1774 74.3595ZM10.0941 74.3595C9.7843 74.2035 9.43666 74.1385 9.09144 74.172C8.74622 74.2055 8.41755 74.336 8.1435 74.5486L2.37704 78.9578C0.864042 80.0332 0 81.6649 0 83.4375C0 86.5043 2.49571 89 5.5625 89C8.62929 89 11.125 86.5043 11.125 83.4375V76.0208C11.125 75.6754 11.0285 75.3368 10.8463 75.0432C10.6642 74.7497 10.4036 74.5129 10.0941 74.3595ZM70.4583 14.8333C69.0195 14.8333 67.614 15.0447 66.2345 15.3673C62.0812 6.13358 52.8438 0 42.6458 0C29.2217 0 18.1263 10.1497 16.8692 23.2958C14.0897 24.3766 11.7008 26.2706 10.0144 28.7303C8.32811 31.19 7.42277 34.1011 7.41667 37.0833C7.41667 37.9363 7.54275 38.8225 7.72817 39.7385C5.36424 41.2392 3.41685 43.3117 2.06605 45.7644C0.715261 48.2171 0.00467528 50.9708 0 53.7708C0 62.9712 7.48712 70.4583 16.6875 70.4583H18.1337L14.8704 86.7824C14.7874 87.2029 14.8527 87.6391 15.055 88.0169C15.2574 88.3947 15.5844 88.6907 15.9804 88.8546C16.3764 89.0185 16.8169 89.0402 17.2271 88.9159C17.6373 88.7917 17.9917 88.5292 18.2302 88.173L28.4466 72.8502L34.3985 75.8243C34.6391 75.9471 34.9037 76.0155 35.1736 76.0247C35.4435 76.0338 35.7122 75.9836 35.9606 75.8774C36.2089 75.7713 36.4309 75.6119 36.6108 75.4105C36.7908 75.209 36.9242 74.9705 37.0018 74.7118L38.3071 70.4583H55.7103L54.2937 71.5412C52.7807 72.6166 51.9167 74.2483 51.9167 76.0208C51.9167 79.0876 54.4124 81.5833 57.4792 81.5833C60.546 81.5833 63.0417 79.0876 63.0417 76.0208V69.1567C65.2546 68.1095 67.1257 66.4569 68.4383 64.3902C69.7509 62.3236 70.4512 59.9274 70.4583 57.4792C70.448 55.5507 70.0031 53.6495 69.1567 51.9167H70.4583C80.6822 51.9167 89 43.5989 89 33.375C89 23.1511 80.6822 14.8333 70.4583 14.8333ZM80.5524 70.6512C80.2425 70.4956 79.895 70.4309 79.5498 70.4643C79.2047 70.4978 78.8761 70.6281 78.6018 70.8403L72.8391 75.2532C71.3224 76.3249 70.4583 77.9529 70.4583 79.7292C70.4583 82.796 72.954 85.2917 76.0208 85.2917C79.0876 85.2917 81.5833 82.796 81.5833 79.7292V72.3125C81.5833 71.967 81.4868 71.6284 81.3046 71.3349C81.1225 71.0414 80.862 70.8046 80.5524 70.6512Z" fill="url(#paint0_linear_61_77)"/>
</g>
<defs>
<linearGradient id="paint0_linear_61_77" x1="6.69806" y1="35.3552" x2="85.6767" y2="72.1836" gradientUnits="userSpaceOnUse">
<stop stop-color="white" stop-opacity="0.2"/>
<stop offset="1" stop-color="white" stop-opacity="0"/>
</linearGradient>
<clipPath id="clip0_61_77">
<rect width="89" height="89" fill="white"/>
</clipPath>
</defs>
</svg>
