<svg width="89" height="89" viewBox="0 0 89 89" fill="none" xmlns="http://www.w3.org/2000/svg">
<g clip-path="url(#clip0_61_76)">
<path d="M44.5 88.6523C68.8847 88.6523 88.6523 68.8847 88.6523 44.5C88.6523 20.1153 68.8847 0.347656 44.5 0.347656C20.1153 0.347656 0.347656 20.1153 0.347656 44.5C0.347656 68.8847 20.1153 88.6523 44.5 88.6523Z" fill="#80C2F8"/>
<path d="M44.5 88.6523C29.3074 88.6523 15.9227 81.0039 7.99609 69.3227C10.1168 66.4371 13.35 64.4555 16.5832 62.9953C20.5813 61.1875 24.8574 59.9707 28.5773 57.6066C29.4812 57.0504 32.0887 55.625 33.0969 55.4859C33.966 55.3469 33.1664 56.3203 34.0355 56.5637C37.4426 57.4676 40.8148 58.5801 44.1176 59.7969C47.4203 58.5453 50.7926 57.4676 54.1996 56.5637C55.0687 56.3203 55.2078 55.5555 56.077 55.6945C57.1199 55.8684 58.7887 57.0504 59.6578 57.6066C63.3777 59.9707 67.6539 61.1875 71.652 62.9953C75.0938 64.5598 78.5008 66.7152 80.6215 69.8789C72.6254 81.2473 59.4492 88.6523 44.5 88.6523Z" fill="#19708D"/>
<path d="M59.3102 23.1191C58.9973 25.2051 57.4328 26.9433 55.5902 27.9515C53.7477 28.9598 51.627 29.3769 49.541 29.7246C47.4551 30.0723 45.3344 30.3156 43.3875 31.1152C41.3016 31.9496 39.3895 33.375 37.1645 33.8269C36.8863 33.8965 36.6082 33.9312 36.3301 33.8617C35.7043 33.6879 35.3566 32.9926 35.148 32.4015C34.4875 30.6285 33.8617 28.8207 33.5488 26.9433C33.2707 25.3441 33.2707 23.6754 33.375 22.0414C33.4445 21.068 33.5488 20.1293 33.8617 19.2254C34.5918 17.0004 36.3996 15.2273 38.4855 14.1148C40.5715 13.0023 42.9008 12.4808 45.2301 12.1332C47.177 11.8551 49.1934 11.6465 51.0359 12.307C51.5922 12.5156 52.0789 12.759 52.6004 13.0371C53.3652 13.4195 54.1301 13.8019 54.8602 14.1844C55.5207 14.532 56.1813 14.8449 56.7027 15.3316C57.8848 16.3398 58.441 17.8695 58.8234 19.3644C59.2059 20.5465 59.484 21.8328 59.3102 23.1191Z" fill="#EEC98F"/>
<path d="M61.0495 27.1074C59.8808 27.0325 58.7769 29.4103 58.584 32.4185C58.3911 35.4266 59.1822 37.9259 60.351 38.0009C61.5198 38.0758 62.6236 35.698 62.8165 32.6899C63.0094 29.6817 62.2183 27.1824 61.0495 27.1074Z" fill="#D3AA6F"/>
<path d="M32.9933 38.0207C34.1621 37.9457 34.9532 35.4464 34.7603 32.4382C34.5674 29.4301 33.4635 27.0522 32.2947 27.1272C31.126 27.2021 30.3349 29.7015 30.5278 32.7096C30.7207 35.7178 31.8245 38.0956 32.9933 38.0207Z" fill="#D3AA6F"/>
<path d="M35.5305 53.4347C35.8086 53.1566 36.052 52.8785 36.2258 52.5308C36.3301 52.357 36.3648 52.1832 36.4344 51.9746C36.8863 51.1402 37.1297 50.1668 37.1645 49.2281C37.1992 47.6289 36.782 46.0644 36.4344 44.5C36.052 42.8312 35.7738 41.1277 35.6 39.4242C38.7289 40.4672 42.1359 39.9457 45.4387 40.2238C47.0031 40.3629 48.5328 40.6758 50.0625 40.8843C52.3918 41.1972 54.7211 41.1972 57.0852 41.1625C55.8684 43.6656 55.3469 46.5164 55.5902 49.2976C55.6598 49.9582 55.7641 50.6187 55.8684 51.314C56.1117 52.8437 56.3898 54.4082 57.2242 55.7293C57.8848 56.4941 58.2324 57.3285 58.1977 58.1629C58.0934 61.5699 52.0441 64.1078 44.7086 63.8297C37.373 63.5863 31.5324 60.5965 31.6367 57.2242C31.6367 56.9808 31.6715 56.7375 31.741 56.4941C33.0969 55.5554 34.3832 54.582 35.5305 53.4347Z" fill="#D3AA6F"/>
<path d="M46.6902 53.9215C54.0824 53.9215 60.075 44.7225 60.075 33.375C60.075 22.0275 54.0824 12.8285 46.6902 12.8285C39.298 12.8285 33.3055 22.0275 33.3055 33.375C33.3055 44.7225 39.298 53.9215 46.6902 53.9215Z" fill="#EEC98F"/>
<path d="M60.4922 30.5938C60.527 29.7594 60.7355 28.925 61.1527 28.1949C61.3613 27.8125 61.6047 27.4648 61.7437 27.0824C61.8828 26.7 61.9176 26.3176 61.9176 25.9004C62.0219 24.3359 62.0566 22.7715 61.6395 21.2766C61.3613 20.2684 60.9094 19.3297 60.4574 18.391C59.623 16.6875 58.7539 14.9492 57.5719 13.4543C55.1035 10.3602 51.2098 8.41328 47.2465 8.34375C46.5512 8.34375 45.8211 8.37852 45.1258 8.41328C43.3527 8.51758 41.5449 8.62188 39.8762 9.28242C38.7637 9.73438 37.7555 10.3949 36.8168 11.125C34.2789 13.1066 32.1234 15.7141 31.2543 18.8082C30.8371 20.2336 30.698 21.7285 30.5937 23.1887C30.4547 24.8922 30.2113 27.0824 30.6633 28.4035C31.7758 28.334 32.0887 29.377 32.5406 30.3852C33.0621 31.5324 33.4793 32.7145 33.7227 33.966H34.2441C34.3137 30.5937 34.5223 27.2215 34.8004 23.8492C34.9047 22.8758 35.009 21.9023 35.3566 20.9637C35.7391 19.9902 36.3648 19.1906 37.0602 18.4258C37.5816 17.8348 38.1031 17.2785 38.7637 16.8613C40.1195 15.9922 41.7535 15.8184 43.3527 15.6793C45.543 15.4707 47.7332 15.2969 49.9234 15.4707C52.1137 15.6445 54.3039 16.2355 56.1465 17.4523C57.0852 18.1129 57.9891 19.0168 58.1281 20.1293C58.2324 20.7898 58.0586 21.4504 58.0586 22.1109C58.0586 23.0496 58.3715 23.9188 58.5801 24.8227C59.032 26.6305 59.1711 28.473 58.9973 30.3156C58.9625 30.6633 58.9277 31.0109 59.032 31.3238C59.1363 31.6367 59.4492 31.9496 59.7969 31.8801C60.3879 31.9148 60.4574 31.15 60.4922 30.5938Z" fill="#1B1714"/>
<path d="M29.2379 31.2543C29.2379 31.2543 40.5367 41.3363 46.2383 35.1828C46.2383 35.1828 53.5043 41.823 62.5434 31.1152C62.5434 31.1152 61.257 28.7164 62.5434 23.6406V23.2582C62.5434 23.2582 46.3078 28.1254 30.107 23.2582C30.1418 23.2582 30.6633 30.107 29.2379 31.2543ZM49.6105 30.2461C49.6105 28.7164 51.4531 27.4648 53.7129 27.4648C55.9727 27.4648 57.8152 28.7164 57.8152 30.2461C57.8152 31.7758 55.9727 33.0273 53.7129 33.0273C51.4531 33.0273 49.6105 31.7758 49.6105 30.2461ZM34.8352 30.2461C34.8352 28.7164 36.6777 27.4648 38.9375 27.4648C41.1973 27.4648 43.0398 28.7164 43.0398 30.2461C43.0398 31.7758 41.1973 33.0273 38.9375 33.0273C36.6777 33.0273 34.8352 31.7758 34.8352 30.2461Z" fill="#0B2C48"/>
</g>
<defs>
<clipPath id="clip0_61_76">
<rect width="89" height="89" fill="white"/>
</clipPath>
</defs>
</svg>
