<svg width="117" height="117" viewBox="0 0 117 117" fill="none" xmlns="http://www.w3.org/2000/svg">
<path d="M104.948 99.4043H42.1383C41.3088 99.4078 40.4881 99.5754 39.7236 99.8974C38.9591 100.219 38.2658 100.69 37.6838 101.281C37.1018 101.872 36.6425 102.572 36.3324 103.342C36.0223 104.111 35.8676 104.934 35.877 105.764V107.859H111.287V105.764C111.289 104.08 110.622 102.465 109.434 101.272C108.245 100.08 106.632 99.4079 104.948 99.4043Z" fill="#6D7486"/>
<path d="M36.8092 47.2639L32.2664 51.8045L42.6158 62.154L47.1564 57.6111L36.8092 47.2639Z" fill="#71C2FF"/>
<path d="M84.4091 44.2498L81.3904 41.2311L59.0621 63.5571L62.0808 66.5757C62.3523 66.8479 62.6748 67.0639 63.0299 67.2112C63.3849 67.3586 63.7656 67.4344 64.15 67.4344C64.5345 67.4344 64.9151 67.3586 65.2702 67.2112C65.6252 67.0639 65.9478 66.8479 66.2192 66.5757L84.4091 48.3882C84.9578 47.8394 85.266 47.0951 85.266 46.319C85.266 45.5429 84.9578 44.7986 84.4091 44.2498ZM50.1706 10.0113C49.6218 9.46255 48.8775 9.1543 48.1014 9.1543C47.3253 9.1543 46.581 9.46255 46.0322 10.0113L27.8423 28.2011C27.2936 28.7499 26.9854 29.4942 26.9854 30.2703C26.9854 31.0464 27.2936 31.7907 27.8423 32.3395L30.861 35.3582L53.1893 13.03L50.1706 10.0113Z" fill="#C2684F"/>
<path d="M76.2145 39.5057L57.3369 58.3834L60.7852 61.834L79.6651 42.954L76.2145 39.5057Z" fill="#824F48"/>
<path d="M51.4638 14.7554L32.5862 33.6331L36.0368 37.0837L54.9145 18.2061L51.4638 14.7554Z" fill="#824F48"/>
<path d="M53.5384 19.5825L37.4143 35.7089L58.7158 57.0073L74.8398 40.881L53.5384 19.5825Z" fill="#C79A83"/>
<path d="M45.5343 43.8271L39.4535 49.9078L44.5129 54.9672L50.5936 48.8865L45.5343 43.8271Z" fill="#824F48"/>
<path d="M33.8775 53.4155L8.07351 76.3836C7.35527 77.0226 6.77519 77.8017 6.36885 78.6729C5.9625 79.5442 5.73847 80.4893 5.71051 81.4502C5.68254 82.4112 5.85122 83.3677 6.20621 84.2611C6.56119 85.1545 7.09499 85.9659 7.77484 86.6456C8.4547 87.3253 9.26627 87.859 10.1598 88.2137C11.0533 88.5685 12.0098 88.737 12.9708 88.7088C13.9317 88.6806 14.8767 88.4564 15.7479 88.0498C16.619 87.6433 17.3979 87.063 18.0368 86.3446L40.8906 60.6595L41.0072 60.5452L33.8775 53.4155Z" fill="#64A8DF"/>
<path d="M103.456 92.0323H43.6305V99.4203H103.456V92.0323Z" fill="#B0B5CA"/>
<path d="M48.9938 99.4043H42.1383C41.3088 99.4078 40.4881 99.5754 39.7236 99.8974C38.9591 100.219 38.2658 100.69 37.6838 101.281C37.1018 101.872 36.6425 102.572 36.3324 103.342C36.0223 104.111 35.8676 104.934 35.877 105.764V107.859H42.7325V105.764C42.723 104.934 42.8778 104.111 43.1879 103.342C43.498 102.572 43.9573 101.872 44.5393 101.281C45.1213 100.69 45.8145 100.219 46.579 99.8974C47.3436 99.5754 48.1642 99.4078 48.9938 99.4043Z" fill="#4A5160"/>
<path d="M50.486 92.0323H43.6305V99.4203H50.486V92.0323Z" fill="#6D7486"/>
<path d="M36.8097 47.2634L32.267 51.804L35.9223 55.461L40.465 50.9205L36.8097 47.2634Z" fill="#4689D3"/>
<path d="M11.7297 80.0399L37.4172 57.186L37.5337 57.0718L33.8775 53.4155L33.7609 53.5298L8.07347 76.3836C7.18855 77.1713 6.51616 78.1691 6.11828 79.285C5.72041 80.4008 5.60985 81.5989 5.7968 82.7688C5.98375 83.9386 6.46219 85.0426 7.18802 85.9789C7.91385 86.9152 8.86371 87.6537 9.95004 88.1264C9.35712 86.7628 9.20996 85.2469 9.52954 83.7947C9.84913 82.3426 10.6191 81.0285 11.7297 80.0399Z" fill="#76BDF7"/>
<path d="M104.948 98.0332H104.889V92.0329C104.889 91.2756 104.213 90.7207 103.456 90.7207H43.6305C43.4545 90.7144 43.279 90.7437 43.1146 90.8069C42.9501 90.87 42.8001 90.9658 42.6736 91.0883C42.5471 91.2108 42.4466 91.3576 42.3781 91.5199C42.3097 91.6823 42.2748 91.8567 42.2754 92.0329V98.0332H42.1383C41.129 98.0377 40.1305 98.2415 39.2001 98.6328C38.2697 99.0241 37.4258 99.5953 36.7166 100.314C36.0075 101.032 35.4472 101.883 35.0678 102.818C34.6884 103.754 34.4975 104.755 34.5059 105.764V107.845C34.4965 108.022 34.5226 108.198 34.5828 108.364C34.643 108.53 34.736 108.682 34.8563 108.811C34.9765 108.941 35.1215 109.044 35.2827 109.116C35.4439 109.188 35.618 109.227 35.7945 109.23H111.292C111.656 109.227 112.005 109.079 112.261 108.82C112.517 108.56 112.66 108.21 112.658 107.845V105.764C112.658 103.717 111.846 101.755 110.401 100.306C108.955 98.8565 106.995 98.0394 104.948 98.0332ZM45.0176 93.4629H102.146V98.0332H45.0176V93.4629ZM109.916 106.488H37.2481V105.764C37.2393 105.115 37.3591 104.47 37.6005 103.867C37.8419 103.264 38.2002 102.715 38.6548 102.252C39.1094 101.788 39.6512 101.419 40.249 101.165C40.8469 100.912 41.489 100.78 42.1383 100.775H104.948C106.268 100.781 107.531 101.309 108.462 102.244C109.394 103.179 109.916 104.444 109.916 105.764V106.488ZM41.6456 63.1229C41.9027 63.38 42.2515 63.5244 42.6151 63.5244C42.9787 63.5244 43.3274 63.38 43.5846 63.1229L48.1266 58.5811C48.3837 58.324 48.5281 57.9753 48.5281 57.6117C48.5281 57.248 48.3837 56.8993 48.1266 56.6422L46.4513 54.9669L50.5934 50.826L56.7747 57.0076L56.3682 57.4143C56.1111 57.6715 55.9666 58.0202 55.9666 58.3838C55.9666 58.7474 56.1111 59.0962 56.3682 59.3533L58.8481 61.8334L58.0928 62.5886C57.8357 62.8457 57.6913 63.1945 57.6913 63.5581C57.6913 63.9217 57.8357 64.2704 58.0928 64.5276L61.1115 67.546C61.5106 67.9452 61.9844 68.2619 62.5059 68.478C63.0273 68.694 63.5863 68.8052 64.1507 68.8052C64.7152 68.8052 65.2742 68.694 65.7956 68.478C66.3171 68.2619 66.7909 67.9452 67.19 67.546L85.3787 49.3576C86.1836 48.5509 86.6356 47.4579 86.6356 46.3183C86.6356 45.1787 86.1836 44.0857 85.3787 43.279L82.36 40.2604C82.1029 40.0032 81.7542 39.8588 81.3905 39.8588C81.0269 39.8588 80.6782 40.0032 80.4211 40.2604L79.6658 41.0156L77.186 38.5355C77.0586 38.4082 76.9075 38.3072 76.7411 38.2382C76.5748 38.1693 76.3965 38.1339 76.2164 38.1339C76.0363 38.1339 75.858 38.1693 75.6916 38.2382C75.5253 38.3072 75.3741 38.4082 75.2468 38.5355L74.84 38.9425L55.4774 19.5811L55.8842 19.1743C56.1413 18.9172 56.2858 18.5684 56.2858 18.2048C56.2858 17.8412 56.1413 17.4925 55.8842 17.2353L53.4041 14.7553L54.1594 14.0012C54.4165 13.744 54.5609 13.3953 54.5609 13.0317C54.5609 12.6681 54.4165 12.3193 54.1594 12.0622L51.1418 9.04238C50.3351 8.2376 49.2421 7.78564 48.1026 7.78564C46.963 7.78564 45.87 8.2376 45.0633 9.04238L26.8748 27.2322C26.0699 28.0389 25.6179 29.1319 25.6179 30.2715C25.6179 31.411 26.0699 32.5041 26.8748 33.3107L29.8935 36.3292C30.1506 36.5863 30.4994 36.7308 30.863 36.7308C31.2266 36.7308 31.5753 36.5863 31.8325 36.3292L32.5877 35.5751L35.0676 38.0552C35.3247 38.3123 35.6734 38.4567 36.037 38.4567C36.4007 38.4567 36.7494 38.3123 37.0065 38.0552L37.4135 37.6484L43.5951 43.83L39.4539 47.9709L37.7789 46.2957C37.6516 46.1683 37.5004 46.0673 37.3341 45.9984C37.1677 45.9295 36.9894 45.894 36.8093 45.894C36.6292 45.894 36.4509 45.9295 36.2846 45.9984C36.1182 46.0673 35.967 46.1683 35.8397 46.2957L31.298 50.8377C31.0409 51.0948 30.8964 51.4435 30.8964 51.8071C30.8964 52.1708 31.0409 52.5195 31.298 52.7766L31.8869 53.3655L7.16284 75.3592C5.88683 76.4944 4.98586 77.9906 4.5793 79.6494C4.17273 81.3082 4.27977 83.0514 4.88623 84.648C5.49269 86.2446 6.56994 87.6193 7.97526 88.5899C9.38058 89.5604 11.0476 90.0811 12.7555 90.0829C12.8401 90.0829 12.9253 90.0829 13.0103 90.0793C14.1587 90.0505 15.2889 89.785 16.33 89.2994C17.3711 88.8138 18.3007 88.1185 19.0607 87.2571L41.0567 62.5342L41.6456 63.1229ZM81.3895 43.1691L83.4386 45.2182C83.7299 45.5103 83.8935 45.9059 83.8935 46.3184C83.8935 46.7309 83.7299 47.1266 83.4386 47.4186L65.2499 65.6069C64.9581 65.8986 64.5624 66.0625 64.1497 66.0625C63.7371 66.0625 63.3413 65.8986 63.0495 65.6069L61.0004 63.5578L81.3895 43.1691ZM76.2152 41.4443L77.7257 42.9548L60.7852 59.894L59.2749 58.3835L76.2152 41.4443ZM30.862 33.4195L28.8129 31.3704C28.5211 31.0786 28.3572 30.6829 28.3572 30.2702C28.3572 29.8576 28.5211 29.4618 28.8129 29.17L47.0016 10.9816C47.2934 10.6898 47.6891 10.5259 48.1018 10.5259C48.5144 10.5259 48.9102 10.6898 49.202 10.9816L51.2508 13.0304L30.862 33.4195ZM36.0362 35.1443L34.5258 33.6339L51.4652 16.6945L52.9757 18.2049L36.0362 35.1443ZM39.3516 35.707L53.5385 21.5202L72.8999 40.8815L58.713 55.0682L39.3516 35.707ZM45.5331 45.7667L48.6533 48.8868L44.5124 53.028L41.3922 49.9078L45.5331 45.7667ZM36.8084 49.2022L45.2178 57.6115L42.615 60.2143L34.2056 51.805L36.8084 49.2022ZM17.0119 85.4345C16.4971 86.0133 15.8695 86.4808 15.1675 86.8083C14.4656 87.1358 13.7041 87.3164 12.9298 87.3391C12.1556 87.3617 11.3848 87.2259 10.6649 86.9399C9.94506 86.654 9.2912 86.2239 8.74349 85.6762C8.19578 85.1285 7.76578 84.4746 7.47988 83.7547C7.19397 83.0348 7.05819 82.2641 7.08088 81.4898C7.10356 80.7155 7.28422 79.9541 7.61178 79.2521C7.93934 78.5502 8.40688 77.9226 8.98571 77.4079L33.8281 55.3056L39.1146 60.5918L17.0119 85.4345Z" fill="#284268"/>
<path d="M53.9069 26.2594C53.6491 26.0058 53.3014 25.8643 52.9397 25.8657C52.578 25.8672 52.2316 26.0115 51.9758 26.2673C51.72 26.5231 51.5757 26.8695 51.5742 27.2312C51.5728 27.5929 51.7143 27.9406 51.9679 28.1984L53.2604 29.4911C53.3878 29.6184 53.5389 29.7194 53.7053 29.7884C53.8716 29.8573 54.0499 29.8927 54.23 29.8927C54.4101 29.8927 54.5884 29.8573 54.7548 29.7884C54.9211 29.7194 55.0723 29.6184 55.1996 29.4911C55.3269 29.3638 55.4279 29.2126 55.4968 29.0463C55.5658 28.8799 55.6012 28.7016 55.6012 28.5215C55.6012 28.3414 55.5658 28.1631 55.4968 27.9968C55.4279 27.8304 55.3269 27.6793 55.1996 27.5519L53.9069 26.2594ZM66.3484 42.0115C66.6196 42.0115 66.8847 41.931 67.1102 41.7804C67.3356 41.6297 67.5114 41.4155 67.6151 41.165C67.7189 40.9145 67.746 40.6388 67.6931 40.3728C67.6402 40.1068 67.5096 39.8625 67.3178 39.6708L58.1086 30.4605C57.8515 30.2033 57.5027 30.0589 57.139 30.0589C56.7754 30.0589 56.4266 30.2033 56.1694 30.4605C55.9123 30.7176 55.7678 31.0664 55.7678 31.4301C55.7678 31.7937 55.9123 32.1425 56.1694 32.3997L65.3786 41.6088C65.5057 41.7366 65.6568 41.8379 65.8233 41.9071C65.9897 41.9762 66.1682 42.0116 66.3484 42.0115Z" fill="#284268"/>
</svg>
