<svg width="82" height="82" viewBox="0 0 82 82" fill="none" xmlns="http://www.w3.org/2000/svg">
<path d="M77.8359 29.7891H52.2109V7.36719H77.8359V29.7891Z" fill="#76E2F8"/>
<path d="M71.7052 67.9511C72.8647 69.1106 74.4663 69.8281 76.2344 69.8281C74.4663 69.8281 72.8647 70.5456 71.7052 71.7052C70.5456 72.8647 69.8281 74.4663 69.8281 76.2344C69.8281 72.6965 66.9597 69.8281 63.4219 69.8281C65.19 69.8281 66.7916 69.1106 67.9511 67.9511C69.1106 66.7916 69.8281 65.19 69.8281 63.4219C69.8281 65.19 70.5456 66.7916 71.7052 67.9511Z" fill="#FF641A"/>
<path d="M68.2266 39.3984C69.1106 39.3984 69.8281 40.1159 69.8281 41C69.8281 41.8841 69.1106 42.6016 68.2266 42.6016C67.3425 42.6016 66.625 41.8841 66.625 41C66.625 40.1159 67.3425 39.3984 68.2266 39.3984Z" fill="black"/>
<path d="M52.2109 32.9922H42.6016V4.16406H52.2109V32.9922Z" fill="#5E79BC"/>
<path d="M47.4062 63.4219C48.2903 63.4219 49.0078 64.1394 49.0078 65.0234C49.0078 65.9075 48.2903 66.625 47.4062 66.625C46.5222 66.625 45.8047 65.9075 45.8047 65.0234C45.8047 64.1394 46.5222 63.4219 47.4062 63.4219Z" fill="black"/>
<path d="M42.6016 7.36719V29.7891C35.5259 29.7891 29.7891 35.5259 29.7891 42.6016H7.36719C7.36719 23.1426 23.1426 7.36719 42.6016 7.36719Z" fill="#76E2F8"/>
<path d="M32.9922 42.6016V52.2109H4.16406V42.6016H32.9922Z" fill="#5E79BC"/>
<path d="M21.7812 77.8359H7.36719V52.2109H29.7891V77.8359H21.7812Z" fill="#76E2F8"/>
<path d="M16.9766 4.16406C17.8606 4.16406 18.5781 4.88156 18.5781 5.76562C18.5781 6.64969 17.8606 7.36719 16.9766 7.36719C16.0925 7.36719 15.375 6.64969 15.375 5.76562C15.375 4.88156 16.0925 4.16406 16.9766 4.16406ZM5.76562 18.5781C6.64969 18.5781 7.36719 19.2956 7.36719 20.1797C7.36719 21.0637 6.64969 21.7812 5.76562 21.7812C4.88156 21.7812 4.16406 21.0637 4.16406 20.1797C4.16406 19.2956 4.88156 18.5781 5.76562 18.5781ZM69.8281 77.0352C69.6157 77.0352 69.4121 76.9508 69.2619 76.8006C69.1117 76.6504 69.0273 76.4468 69.0273 76.2344C69.0273 73.1435 66.5127 70.6289 63.4219 70.6289C62.9795 70.6289 62.6211 70.2705 62.6211 69.8281C62.6211 69.3858 62.9795 69.0273 63.4219 69.0273C64.9182 69.0273 66.3257 68.4439 67.3849 67.3848C68.4439 66.3257 69.0273 64.9182 69.0273 63.4219C69.0273 62.9795 69.3858 62.6211 69.8281 62.6211C70.2705 62.6211 70.6289 62.9795 70.6289 63.4219C70.6289 64.9182 71.2124 66.3257 72.2715 67.3849C73.3306 68.4439 74.738 69.0273 76.2344 69.0273C76.6767 69.0273 77.0352 69.3858 77.0352 69.8281C77.0352 70.2705 76.6767 70.6289 76.2344 70.6289C74.7379 70.6289 73.3304 71.2122 72.2713 72.2713C71.2124 73.3306 70.6289 74.738 70.6289 76.2344C70.6289 76.4468 70.5445 76.6504 70.3944 76.8006C70.2442 76.9508 70.0405 77.0352 69.8281 77.0352ZM66.7259 69.8304C68.0542 70.5192 69.137 71.602 69.8259 72.9304C70.1687 72.2692 70.6115 71.6649 71.1387 71.1388C71.6636 70.6127 72.2665 70.1705 72.9262 69.828C72.2666 69.4855 71.6637 69.0434 71.1388 68.5173C70.6127 67.9922 70.1706 67.3893 69.828 66.7297C69.4855 67.3893 69.0434 67.9922 68.5173 68.5171C67.9914 69.0445 67.3871 69.4875 66.7259 69.8304ZM32.9922 53.0117H29.7891C29.5767 53.0117 29.373 52.9273 29.2228 52.7772C29.0726 52.627 28.9883 52.4233 28.9883 52.2109C28.9883 51.9986 29.0726 51.7949 29.2228 51.6447C29.373 51.4945 29.5767 51.4102 29.7891 51.4102H32.1914V43.4023H4.96484V51.4102H7.36719C7.57957 51.4102 7.78325 51.4945 7.93343 51.6447C8.0836 51.7949 8.16797 51.9986 8.16797 52.2109C8.16797 52.4233 8.0836 52.627 7.93343 52.7772C7.78325 52.9273 7.57957 53.0117 7.36719 53.0117H4.16406C3.95168 53.0117 3.748 52.9273 3.59782 52.7772C3.44765 52.627 3.36328 52.4233 3.36328 52.2109V42.6016C3.36328 42.3892 3.44765 42.1855 3.59782 42.0353C3.748 41.8852 3.95168 41.8008 4.16406 41.8008H32.9922C33.2046 41.8008 33.4083 41.8852 33.5584 42.0353C33.7086 42.1855 33.793 42.3892 33.793 42.6016V52.2109C33.793 52.4233 33.7086 52.627 33.5584 52.7772C33.4083 52.9273 33.2046 53.0117 32.9922 53.0117ZM52.2109 33.793H42.6016C42.3892 33.793 42.1855 33.7086 42.0353 33.5584C41.8852 33.4083 41.8008 33.2046 41.8008 32.9922V4.16406C41.8008 3.95168 41.8852 3.748 42.0353 3.59782C42.1855 3.44765 42.3892 3.36328 42.6016 3.36328H52.2109C52.4233 3.36328 52.627 3.44765 52.7772 3.59782C52.9273 3.748 53.0117 3.95168 53.0117 4.16406V7.36719C53.0117 7.80954 52.6533 8.16797 52.2109 8.16797C51.7686 8.16797 51.4102 7.80954 51.4102 7.36719V4.96484H43.4023V32.1914H51.4102V29.7891C51.4102 29.3467 51.7686 28.9883 52.2109 28.9883C52.6533 28.9883 53.0117 29.3467 53.0117 29.7891V32.9922C53.0117 33.2046 52.9273 33.4083 52.7772 33.5584C52.627 33.7086 52.4233 33.793 52.2109 33.793Z" fill="black"/>
<path d="M29.7891 43.4023C29.5767 43.4023 29.373 43.318 29.2228 43.1678C29.0726 43.0176 28.9883 42.8139 28.9883 42.6016C28.9883 35.0952 35.0952 28.9883 42.6016 28.9883C42.8139 28.9883 43.0176 29.0726 43.1678 29.2228C43.318 29.373 43.4023 29.5767 43.4023 29.7891C43.4023 30.0014 43.318 30.2051 43.1678 30.3553C43.0176 30.5055 42.8139 30.5898 42.6016 30.5898C35.9783 30.5898 30.5898 35.9783 30.5898 42.6016C30.5898 42.8139 30.5055 43.0176 30.3553 43.1678C30.2051 43.318 30.0014 43.4023 29.7891 43.4023ZM7.36719 43.4023C7.15481 43.4023 6.95113 43.318 6.80095 43.1678C6.65077 43.0176 6.56641 42.8139 6.56641 42.6016C6.56641 22.6865 22.6836 6.56641 42.6016 6.56641C42.8139 6.56641 43.0176 6.65077 43.1678 6.80095C43.318 6.95113 43.4023 7.15481 43.4023 7.36719C43.4023 7.57957 43.318 7.78325 43.1678 7.93343C43.0176 8.0836 42.8139 8.16797 42.6016 8.16797C23.6149 8.16797 8.16797 23.6147 8.16797 42.6016C8.16797 42.8139 8.0836 43.0176 7.93343 43.1678C7.78325 43.318 7.57957 43.4023 7.36719 43.4023ZM77.8359 30.5898H52.2109C51.9986 30.5898 51.7949 30.5055 51.6447 30.3553C51.4945 30.2051 51.4102 30.0014 51.4102 29.7891V7.36719C51.4102 7.15481 51.4945 6.95113 51.6447 6.80095C51.7949 6.65077 51.9986 6.56641 52.2109 6.56641H77.8359C78.0483 6.56641 78.252 6.65077 78.4022 6.80095C78.5524 6.95113 78.6367 7.15481 78.6367 7.36719V29.7891C78.6367 30.0014 78.5524 30.2051 78.4022 30.3553C78.252 30.5055 78.0483 30.5898 77.8359 30.5898ZM53.0117 28.9883H77.0352V8.16797H53.0117V28.9883ZM29.7891 78.6367H7.36719C7.15481 78.6367 6.95113 78.5524 6.80095 78.4022C6.65077 78.252 6.56641 78.0483 6.56641 77.8359V52.2109C6.56641 51.9986 6.65077 51.7949 6.80095 51.6447C6.95113 51.4945 7.15481 51.4102 7.36719 51.4102H29.7891C30.0014 51.4102 30.2051 51.4945 30.3553 51.6447C30.5055 51.7949 30.5898 51.9986 30.5898 52.2109V77.8359C30.5898 78.0483 30.5055 78.252 30.3553 78.4022C30.2051 78.5524 30.0014 78.6367 29.7891 78.6367ZM8.16797 77.0352H28.9883V53.0117H8.16797V77.0352Z" fill="black"/>
<path d="M77.8359 22.582H65.0234C64.5811 22.582 64.2227 22.2236 64.2227 21.7812C64.2227 21.3389 64.5811 20.9805 65.0234 20.9805H77.8359C78.2783 20.9805 78.6367 21.3389 78.6367 21.7812C78.6367 22.2236 78.2783 22.582 77.8359 22.582ZM21.7812 78.6367C21.5689 78.6367 21.3652 78.5523 21.215 78.4022C21.0648 78.252 20.9805 78.0483 20.9805 77.8359V63.4219C20.9805 63.2095 21.0648 63.0058 21.215 62.8556C21.3652 62.7055 21.5689 62.6211 21.7812 62.6211C21.9936 62.6211 22.1973 62.7055 22.3475 62.8556C22.4977 63.0058 22.582 63.2095 22.582 63.4219V77.8359C22.582 78.0483 22.4977 78.252 22.3475 78.4022C22.1973 78.5523 21.9936 78.6367 21.7812 78.6367Z" fill="black"/>
</svg>
